<svg width="120" height="46" viewBox="0 0 120 46" fill="none" xmlns="http://www.w3.org/2000/svg">
<mask id="mask0_999_6151" style="mask-type:alpha" maskUnits="userSpaceOnUse" x="22" y="7" width="76" height="32">
<g clip-path="url(#clip0_999_6151)">
<path d="M68.9486 26.9094H61.7645V24.3773H68.2869V21.6869H61.7645V19.1547H68.8856V16.2744H58.4561V29.7897H68.9486V26.9094ZM75.7546 25.6434H78.937C79.9768 25.6434 80.8591 25.4534 81.6153 25.042C82.3715 24.6621 82.9702 24.0924 83.3798 23.3961C83.7894 22.6681 84.01 21.8451 84.01 20.9272C84.01 20.0093 83.8209 19.1864 83.4113 18.49C83.0017 17.7937 82.4345 17.2556 81.6783 16.8441C80.9221 16.4643 80.0713 16.2744 79.063 16.2744H72.4146V29.7897H75.7546V25.6434ZM75.7546 19.0914H78.6849C79.3151 19.0914 79.8193 19.2497 80.1974 19.5979C80.5755 19.946 80.7645 20.3892 80.7645 20.9272C80.7645 21.497 80.5755 21.9717 80.1974 22.3199C79.8193 22.6681 79.3151 22.8263 78.6849 22.8263H75.7546V19.0914ZM88.3267 27.3209H93.5257L94.408 29.7897H97.937L92.6435 16.2744H89.1775L83.8839 29.7897H87.4445L88.3267 27.3209ZM90.942 20.0093L92.5174 24.4406H89.335L90.942 20.0093ZM61.0398 38.3041L58.8657 33.4614H58.4246L60.8823 38.8738H61.2604L63.7181 33.4614H63.277L61.0398 38.3041ZM65.01 38.8738H65.4196V33.4614H65.01V38.8738ZM70.9967 38.3357C70.6501 38.494 70.272 38.589 69.8624 38.589C69.4212 38.589 69.0116 38.494 68.6335 38.2724C68.2554 38.0509 67.9718 37.766 67.7513 37.3862C67.5307 37.0064 67.4362 36.5949 67.4362 36.1518C67.4362 35.7086 67.5307 35.2972 67.7513 34.9173C67.9718 34.5375 68.2554 34.2527 68.6335 34.0311C69.0116 33.8095 69.4212 33.7146 69.8624 33.7146C70.272 33.7146 70.6501 33.7779 70.9652 33.9361C71.2803 34.0944 71.5639 34.2843 71.7844 34.5692L72.131 34.3793C71.879 34.0627 71.5639 33.8095 71.1542 33.6196C70.7761 33.4297 70.335 33.3347 69.8624 33.3347C69.3267 33.3347 68.8541 33.4614 68.413 33.7146C67.9718 33.9678 67.6252 34.316 67.3732 34.7274C67.1211 35.1706 66.995 35.6137 66.995 36.1518C66.995 36.6582 67.1211 37.133 67.3732 37.5761C67.6252 38.0192 67.9718 38.3357 68.413 38.589C68.8541 38.8422 69.3267 38.9688 69.8624 38.9688C70.3665 38.9688 70.8076 38.8738 71.2173 38.6523C71.6269 38.4623 71.942 38.1775 72.194 37.7977L71.8159 37.6077C71.6269 37.9243 71.3433 38.1775 70.9967 38.3357ZM72.8242 33.8412H74.9984V38.8738H75.4395V33.8412H77.6136V33.4614H72.8557L72.8242 33.8412ZM82.277 33.7462C81.8358 33.493 81.3632 33.3664 80.8591 33.3664C80.3234 33.3664 79.8508 33.493 79.4096 33.7462C78.9685 33.9994 78.6219 34.3476 78.3698 34.7591C78.1178 35.2022 77.9917 35.6453 77.9917 36.1834C77.9917 36.6898 78.1178 37.1646 78.3698 37.6077C78.6219 38.0192 78.9685 38.3674 79.4096 38.6206C79.8508 38.8738 80.3234 39.0004 80.8591 39.0004C81.3947 39.0004 81.8673 38.8738 82.3085 38.6206C82.7496 38.3674 83.0962 38.0509 83.3483 37.6077C83.6003 37.1963 83.7264 36.7215 83.7264 36.1834C83.7264 35.677 83.6003 35.2022 83.3483 34.7591C83.0332 34.316 82.6866 33.9994 82.277 33.7462ZM82.9387 37.3862C82.7181 37.766 82.4345 38.0509 82.0564 38.2724C81.6783 38.494 81.2687 38.589 80.8275 38.589C80.3864 38.589 79.9768 38.494 79.5987 38.2724C79.2206 38.0509 78.937 37.766 78.7164 37.3862C78.4959 37.0064 78.4013 36.5949 78.4013 36.1518C78.4013 35.7086 78.4959 35.2972 78.7164 34.9173C78.937 34.5375 79.2206 34.2527 79.5987 34.0311C79.9768 33.8095 80.3864 33.7146 80.8275 33.7146C81.2687 33.7146 81.6783 33.8095 82.0564 34.0311C82.4345 34.2527 82.7181 34.5375 82.9387 34.9173C83.1592 35.2972 83.2537 35.7086 83.2537 36.1518C83.2537 36.5949 83.1592 37.0064 82.9387 37.3862ZM88.8309 36.2151C89.146 35.9302 89.335 35.5504 89.335 35.0756C89.335 34.7591 89.2405 34.4742 89.0829 34.221C88.9254 33.9678 88.7048 33.7779 88.4212 33.6513C88.1377 33.5247 87.8226 33.4614 87.4445 33.4614H85.0813V38.8738H85.4909V36.6898H87.0348L88.9569 38.8738H89.5241L87.539 36.6898C88.0746 36.6582 88.5158 36.5316 88.8309 36.2151ZM85.4909 36.31V33.8095H87.4445C87.8856 33.8095 88.2322 33.9361 88.5158 34.1577C88.7994 34.3793 88.9254 34.6958 88.9254 35.0756C88.9254 35.4554 88.7994 35.7403 88.5158 35.9935C88.2322 36.2151 87.8856 36.3417 87.4445 36.3417L85.4909 36.31ZM91.0365 38.8738H91.4461V33.4614H91.0365V38.8738ZM95.5738 33.4614H95.1957L92.801 38.8738H93.2421L93.9038 37.3862H96.8972L97.5589 38.8738H98L95.5738 33.4614ZM94.0614 37.0064L95.3848 33.9678L96.7081 37.0064H94.0614Z" fill="#0A3C73"/>
<path d="M40.24 21.2028C40.2668 21.2028 40.2668 21.2028 40.24 21.2028C43.8156 21.2028 46.7551 22.0011 49.1653 23.145L55.5481 12.0244H24.9058L31.3147 23.1716C33.7252 22.0277 36.6911 21.2028 40.24 21.2028Z" fill="#0A3C73"/>
<path d="M40.2438 17.9199C40.2753 17.9199 40.2753 17.9199 40.2438 17.9199C44.4975 17.9199 47.995 18.8694 50.8624 20.2305L58.4561 7H22L29.6252 20.2621C32.4925 18.9011 36.0216 17.9199 40.2438 17.9199Z" fill="#00B4E0"/>
<path d="M40.2753 21.085C36.6518 21.085 33.6584 21.8763 31.2007 23.0157L40.2438 38.7467L49.2869 22.9841C46.8292 21.8763 43.8674 21.085 40.2753 21.085Z" fill="#C3D700"/>
</g>
</mask>
<g mask="url(#mask0_999_6151)">
<rect y="3" width="120" height="41" fill="white"/>
</g>
<defs>
<clipPath id="clip0_999_6151">
<rect width="76" height="32" fill="white" transform="translate(22 7)"/>
</clipPath>
</defs>
</svg>
