<svg width="120" height="46" viewBox="0 0 120 46" fill="none" xmlns="http://www.w3.org/2000/svg">
<path d="M29.7082 1.86136L22.1757 10.4792L11.6464 5.70863C11.4034 5.70863 11.1604 5.4778 10.9174 5.70863C10.6744 5.70863 10.6744 5.93947 10.9174 6.40114L13.3473 17.4044L2.818 22.175C2.57502 22.175 2.33203 22.4058 2.33203 22.6367C2.33203 22.8675 2.57502 23.0983 2.818 23.0983L13.3473 28.0998L10.8364 39.103V39.7955H11.5654L22.0946 35.025L29.3841 43.8736C29.6271 44.1045 29.8701 44.3353 30.1131 44.1045C30.3561 44.1045 30.3561 43.8736 30.599 43.6428L33.3529 32.8703H45.2588C45.5018 32.8703 45.7448 32.8703 45.9878 32.6394C45.9878 32.4086 45.9878 32.1778 45.7448 31.9469L38.4552 23.0982L46.0687 14.2496C46.3117 14.0187 46.3117 13.7879 46.3117 13.5571C46.3117 13.3262 46.0687 13.3262 45.5827 13.3262H42.5859C42.3429 13.3262 42.0999 13.3262 42.0999 13.5571L30.9226 24.7911H30.6796V24.5602C30.9226 24.3294 36.9972 17.1735 40.237 13.557V13.3261C40.237 13.0953 40.237 13.0953 39.994 13.0953H36.1873C35.9443 13.0953 35.4583 13.3261 35.4583 13.557C33.6764 15.4806 24.6045 24.5602 24.3617 24.5602H24.1997V24.3294L33.5141 13.5569C33.7571 13.326 33.7571 13.0952 33.7571 12.8644C33.7571 12.8644 31.2462 2.09182 31.2462 1.86109C31.2462 1.63025 31.0032 1.39941 30.7602 1.39941C29.9503 1.63025 29.7082 1.63052 29.7082 1.86136Z" fill="white"/>
<path d="M9.86409 23.791C7.11023 23.791 4.59945 23.3293 2.33154 22.329C2.33154 22.329 2.57453 22.329 2.57453 22.0982L13.1038 17.3276L10.5929 6.32432V5.63182H11.3219L21.8512 10.4024L29.3837 1.78455C29.6267 1.55371 29.8697 1.55371 29.8697 1.55371C29.8697 2.47702 30.1127 3.24647 30.1127 4.16987C30.4366 15.019 21.122 23.791 9.86409 23.791ZM38.5364 14.2496C38.7794 14.0188 39.0224 13.5571 39.2654 13.3263H35.7826C35.5396 13.3263 35.2966 13.5571 35.0536 13.5571C35.0536 14.0188 35.0536 14.7882 35.5396 15.0191C36.0256 15.7116 37.4835 15.2499 38.5364 14.2496ZM42.0192 13.0955C41.7762 13.0955 41.5332 13.0955 41.5332 13.3263L41.2902 13.5571C41.2902 14.0188 41.5332 14.2496 41.7762 14.4805C42.5051 15.173 44.044 14.7113 44.773 13.7879C45.016 13.5571 45.016 13.3263 45.259 13.0954L42.0192 13.0955Z" fill="white"/>
<path d="M44.0439 14.0193H42.0191C41.5331 14.0193 41.2902 14.2501 41.0472 14.481C37.2404 18.3283 31.0037 24.4838 30.7608 24.4838C30.0319 25.1763 29.4649 24.7146 30.2748 24.0221C30.5178 23.7913 35.5395 18.0204 38.5363 14.4808C38.5363 14.2499 38.7793 14.0191 38.5363 14.0191H35.5395C35.2965 14.0191 35.0535 14.0191 34.8105 14.2499C31.0037 18.0972 24.5241 24.561 24.2813 24.561C23.5523 25.2535 22.9853 24.7919 23.7953 24.0993C24.0383 23.8685 29.5459 17.4052 32.3808 13.7883C32.6237 13.5574 32.6237 13.3266 32.6237 12.865L30.1939 3.24702C30.1939 3.01618 29.9509 2.78534 29.7079 3.24702L22.9044 11.0954C22.6614 11.3263 22.1754 11.5571 21.9325 11.3263L12.3751 6.7865C12.1321 6.7865 11.8891 6.7865 11.8891 7.01733L14.157 17.0201C14.157 17.251 14.157 17.7126 13.671 17.9435L4.03258 22.4062C3.7896 22.4062 3.7896 22.8679 4.03258 22.8679L13.59 27.4077C13.8329 27.4077 14.0759 27.8693 14.0759 28.331L11.565 38.1797C11.565 38.4105 11.565 38.6413 12.051 38.4105L21.8517 34.1016C22.0946 34.1016 22.5806 34.1016 22.8236 34.3324L29.3841 42.1808C29.6271 42.4116 29.8701 42.4116 29.8701 42.1808L32.381 32.4087C32.381 32.1779 32.8669 31.9471 33.1099 31.9471H43.6392C43.8822 31.9471 44.1252 31.7162 43.8822 31.4854L37.3216 23.3292C37.0786 23.0983 37.0786 22.6367 37.3216 22.4059L44.1251 14.5575C44.5301 14.2497 44.2869 14.0193 44.0439 14.0193Z" fill="white"/>
<path d="M58.1375 15.0191C60.1624 13.0955 62.1873 12.4029 64.6981 12.4029C69.4768 12.4029 72.2306 15.0191 72.2306 20.2513V32.4083H66.48V21.1742C66.48 18.3273 65.5081 16.8653 63.4832 16.8653C61.7013 16.8653 60.7293 17.5578 58.9475 19.2507V32.4081H53.1969V16.4034C52.9539 16.4034 51.415 16.1726 51.415 16.1726V13.0947L57.7326 12.8639C57.8946 12.8639 58.1375 14.2496 58.1375 15.0191ZM108.192 16.865C106.653 16.865 105.195 17.5575 103.413 19.4812V27.8682C104.142 28.0991 105.438 28.5607 106.653 28.5607C110.703 28.5607 111.432 25.4829 111.432 22.559C111.675 18.7887 110.703 16.865 108.192 16.865ZM103.656 5.40039V14.4799C105.438 13.018 107.139 12.3255 109.407 12.3255C114.429 12.3255 117.668 15.9419 117.668 21.8668C117.668 28.7919 113.619 32.8701 106.572 32.8701C104.061 32.8701 100.821 32.4084 97.9862 31.639V8.94023C97.7432 8.94023 95.9614 8.70939 95.9614 8.70939V5.63157L103.656 5.40039ZM76.7657 13.5566C79.0335 12.8641 81.7874 12.3255 84.2983 12.3255C90.0488 12.3255 93.1267 14.7108 93.1267 19.2505V29.0226C93.6127 29.0226 95.1515 29.2534 95.1515 29.2534V32.3312L88.834 32.562C88.834 32.562 88.591 31.6387 88.591 31.1001C86.8091 32.562 84.7842 33.2545 82.5164 33.2545C77.9807 33.2545 75.2269 30.8692 75.2269 27.022C75.2269 22.7131 78.7097 20.5587 85.5133 20.5587H87.5382V19.8662C87.5382 17.7117 87.0522 16.7883 83.7314 16.7883C81.9495 16.7883 79.6816 17.25 77.9808 18.0195H77.4948L76.5229 13.9414L76.7657 13.5566ZM80.7346 26.714C80.7346 28.176 81.7065 29.0994 83.4885 29.0994C85.0274 29.0994 85.9993 28.6377 87.5383 27.4066V24.3288H85.5134C81.3017 24.098 80.7346 25.4828 80.7346 26.714Z" fill="white"/>
</svg>
